<?xml version="1.0" encoding="UTF-8" standalone="no"?>
<svg
   xmlns:dc="http://purl.org/dc/elements/1.1/"
   xmlns:cc="http://creativecommons.org/ns#"
   xmlns:rdf="http://www.w3.org/1999/02/22-rdf-syntax-ns#"
   xmlns:svg="http://www.w3.org/2000/svg"
   xmlns="http://www.w3.org/2000/svg"
   viewBox="0 0 696 240"
   height="240"
   width="696"
   xml:space="preserve"
   id="svg2"
   version="1.1"><metadata
     id="metadata8"><rdf:RDF><cc:Work
         rdf:about=""><dc:format>image/svg+xml</dc:format><dc:type
           rdf:resource="http://purl.org/dc/dcmitype/StillImage" /></cc:Work></rdf:RDF></metadata><defs
     id="defs6"><clipPath
       id="clipPath18"
       clipPathUnits="userSpaceOnUse"><path
         id="path16"
         d="M 0,180 H 522 V 0 H 0 Z" /></clipPath></defs><g
     transform="matrix(1.3333333,0,0,-1.3333333,0,240)"
     id="g10"><g
       id="g12"><g
         clip-path="url(#clipPath18)"
         id="g14"><g
           transform="translate(291.1387,111.1992)"
           id="g20"><path
             id="path22"
             style="fill:#37322f;fill-opacity:1;fill-rule:nonzero;stroke:none"
             d="m 0,0 c 0,8.035 -4.384,13.392 -10.958,13.392 -6.818,0 -10.957,-5.357 -10.957,-13.392 0,-8.036 4.383,-13.637 10.957,-13.637 C -4.139,-13.637 0,-8.036 0,0 m 8.766,0 c 0,-12.419 -8.036,-20.455 -19.724,-20.455 -11.688,0 -19.724,7.792 -19.724,20.455 0,12.417 8.036,20.209 19.724,20.209 C 0.73,20.209 8.766,12.661 8.766,0" /></g><g
           transform="translate(329.4922,111.5029)"
           id="g24"><path
             id="path26"
             style="fill:#37322f;fill-opacity:1;fill-rule:nonzero;stroke:none"
             d="m 0,0 -8.752,-20.027 h -6.441 l -11.714,39.202 h 9.254 l 7.303,-27.028 7.427,17.166 -3.044,9.862 H 2.8 l 7.792,-27.028 8.522,27.028 h 7.793 L 13.186,-20.027 H 6.227 Z" /></g><g
           transform="translate(358.4971,100.9722)"
           id="g28"><path
             id="path30"
             style="fill:#37322f;fill-opacity:1;fill-rule:nonzero;stroke:none"
             d="m 0,0 c 2.921,-1.948 7.062,-3.653 11.687,-3.653 3.654,0 5.845,1.705 5.845,4.383 0,2.435 -1.462,3.47 -3.897,4.627 L 8.034,8.036 C 2.557,10.652 0.73,14.427 0.73,18.749 c 0,7.304 6.087,11.687 14.367,11.687 3.897,0 7.549,-1.217 9.74,-2.435 v -7.792 c -2.922,2.192 -6.087,3.653 -9.984,3.653 -3.531,0 -5.845,-1.704 -5.845,-4.383 0,-2.921 1.828,-4.079 4.141,-5.113 l 5.356,-2.435 c 4.323,-1.948 7.55,-4.87 7.55,-10.472 0,-7.546 -6.332,-11.687 -14.368,-11.687 -4.382,0 -8.036,0.976 -10.957,2.192 z" /></g><g
           transform="translate(420.5293,111.1992)"
           id="g32"><path
             id="path34"
             style="fill:#37322f;fill-opacity:1;fill-rule:nonzero;stroke:none"
             d="m 0,0 c 0,8.035 -4.383,13.392 -10.957,13.392 -6.818,0 -10.957,-5.357 -10.957,-13.392 0,-8.036 4.383,-13.637 10.957,-13.637 C -4.139,-13.637 0,-8.036 0,0 m 8.768,0 c 0,-12.419 -8.038,-20.455 -19.725,-20.455 -11.687,0 -19.725,7.792 -19.725,20.455 0,12.417 8.038,20.209 19.725,20.209 C 0.73,20.209 8.768,12.661 8.768,0" /></g><g
           transform="translate(442.6289,116.2515)"
           id="g36"><path
             id="path38"
             style="fill:#37322f;fill-opacity:1;fill-rule:nonzero;stroke:none"
             d="M 0,0 V -24.776 H -7.305 V 9.192 l -4.14,5.235 H -0.974 L 17.045,-8.705 v 23.132 h 7.305 v -39.203 h -4.626 z" /></g><g
           transform="translate(227.8599,130.6777)"
           id="g40"><path
             id="path42"
             style="fill:#37322f;fill-opacity:1;fill-rule:nonzero;stroke:none"
             d="M 0,0 H 31.657 L 29.221,-6.817 H 19.237 V -39.202 H 10.958 V -6.817 H 0 Z" /></g><g
           transform="translate(242.7563,48.5361)"
           id="g44"><path
             id="path46"
             style="fill:#37322f;fill-opacity:1;fill-rule:nonzero;stroke:none"
             d="m 0,0 c -7.73,0 -11.648,3.919 -11.648,11.647 v 17.952 h 6.837 V 11.997 c 0,-4.237 1.529,-6.211 4.811,-6.211 3.391,0 5.336,2.009 5.336,5.512 v 18.301 h 6.137 V 11.822 C 11.473,4.42 7.184,0 0,0" /></g><g
           transform="translate(280.6875,49.0615)"
           id="g48"><path
             id="path50"
             style="fill:#37322f;fill-opacity:1;fill-rule:nonzero;stroke:none"
             d="M 0,0 -13.527,16.992 V 0 h -6.137 v 24.713 l -3.447,4.36 h 8.657 L -2.155,13.284 V 29.073 H 3.981 L 3.981,0 Z" /></g><path
           id="path52"
           style="fill:#37322f;fill-opacity:1;fill-rule:nonzero;stroke:none"
           d="m 291.89,78.135 h 6.837 V 49.062 h -6.837 z" /><g
           transform="translate(312.7061,49.0576)"
           id="g54"><path
             id="path56"
             style="fill:#37322f;fill-opacity:1;fill-rule:nonzero;stroke:none"
             d="m 0,0 -9.517,29.077 h 7.591 l 5.65,-18.444 6.315,18.444 h 6.552 L 5.869,0 Z" /></g><g
           transform="translate(333.916,49.0615)"
           id="g58"><path
             id="path60"
             style="fill:#37322f;fill-opacity:1;fill-rule:nonzero;stroke:none"
             d="m 0,0 v 29.072 h 18.055 l -2.067,-5.786 h -9.15 v -5.768 h 9.29 L 14.062,11.73 H 6.838 V 5.786 H 18.579 L 16.514,0 Z" /></g><g
           transform="translate(369.0566,64.4775)"
           id="g62"><path
             id="path64"
             style="fill:#37322f;fill-opacity:1;fill-rule:nonzero;stroke:none"
             d="m 0,0 c 1.152,0.952 2.339,2.682 2.339,4.812 0,1.749 -0.588,3.76 -5.161,3.76 h -1.484 l 0,-8.572 z m 4.635,-15.416 -6.348,10.331 h -2.593 v -10.331 h -6.837 v 28.458 l 0.343,0.079 c 2.278,0.525 5.09,1.061 8.679,1.061 7.183,0 11.472,-3.373 11.472,-9.021 0,-3.563 -2.316,-6.655 -4.73,-8.273 l 8.084,-12.304 z" /></g><g
           transform="translate(392.502,48.5381)"
           id="g66"><path
             id="path68"
             style="fill:#37322f;fill-opacity:1;fill-rule:nonzero;stroke:none"
             d="M 0,0 C -2.777,0 -5.485,0.539 -8.05,1.608 L -8.295,1.711 -8.928,8.673 -8.159,8.161 C -6.729,7.207 -3.767,5.608 0,5.608 c 2.354,0 3.76,1.013 3.76,2.71 0,1.461 -0.822,2.108 -2.549,2.928 l -4.028,1.927 c -3.704,1.771 -5.504,4.421 -5.504,8.102 0,5.29 4.329,8.845 10.773,8.845 2.924,0 5.647,-0.932 7.219,-1.805 l 0.227,-0.126 v -6.747 l -0.706,0.531 c -2.311,1.73 -4.508,2.539 -6.915,2.539 -2.286,0 -3.761,-1.066 -3.761,-2.711 0,-1.731 0.954,-2.486 2.716,-3.275 l 3.854,-1.751 c 2.441,-1.099 5.686,-3.12 5.686,-7.93 C 10.772,3.555 6.444,0 0,0" /></g><path
           id="path70"
           style="fill:#37322f;fill-opacity:1;fill-rule:nonzero;stroke:none"
           d="m 408.612,78.135 h 6.837 V 49.062 h -6.837 z" /><g
           transform="translate(427.2168,49.0615)"
           id="g72"><path
             id="path74"
             style="fill:#37322f;fill-opacity:1;fill-rule:nonzero;stroke:none"
             d="m 0,0 v 23.286 h -7.88 v 5.786 H 15.952 L 13.886,23.286 H 6.837 L 6.837,0 Z" /></g><g
           transform="translate(453.79,49.0615)"
           id="g76"><path
             id="path78"
             style="fill:#37322f;fill-opacity:1;fill-rule:nonzero;stroke:none"
             d="m 0,0 v 11.882 l -9.591,17.19 h 7.666 L 3.944,18.51 9.812,29.072 h 6.989 L 6.837,12.185 V 0 Z" /></g><g
           transform="translate(176.5825,138.2695)"
           id="g80"><path
             id="path82"
             style="fill:#faba09;fill-opacity:1;fill-rule:nonzero;stroke:none"
             d="m 0,0 v -59.964 c 0,-9.284 -3.845,-13.07 -12.881,-13.07 -9.034,0 -12.879,3.786 -12.879,13.07 v 42.798 L -51.52,0 v -60.594 c 0,-32.963 29.599,-35.527 38.639,-35.527 9.041,0 38.641,2.564 38.641,35.527 v 43.428 z" /></g><g
           transform="translate(47.7827,138.2695)"
           id="g84"><path
             id="path86"
             style="fill:#37322f;fill-opacity:1;fill-rule:nonzero;stroke:none"
             d="m 0,0 v -22.309 h 25.76 v -56.645 l 25.76,-17.167 v 73.812 H 77.28 V 0 Z" /></g><g
           transform="translate(125.0625,138.2695)"
           id="g88"><path
             id="path90"
             style="fill:#17170f;fill-opacity:1;fill-rule:nonzero;stroke:none"
             d="M 0,0 V -22.309 H -9.603 Z" /></g><g
           transform="translate(468.7598,52.5332)"
           id="g92"><path
             id="path94"
             style="fill:#37322f;fill-opacity:1;fill-rule:nonzero;stroke:none"
             d="m 0,0 v -1.081 h 0.797 c 0.348,0 0.566,0.207 0.566,0.528 C 1.363,-0.205 1.145,0 0.797,0 Z M 0.502,-1.492 H 0 v -1.236 h -0.477 v 3.127 h 1.274 c 0.604,0 1.055,-0.373 1.055,-0.952 0,-0.694 -0.618,-0.926 -0.797,-0.926 L 1.891,-2.728 H 1.312 Z m -2.2,0.335 c 0,-1.249 1.015,-2.278 2.276,-2.278 1.261,0 2.277,1.029 2.277,2.278 0,1.274 -1.016,2.277 -2.277,2.277 -1.261,0 -2.276,-1.003 -2.276,-2.277 m -0.451,0 c 0,1.518 1.222,2.726 2.727,2.726 1.519,0 2.728,-1.208 2.728,-2.726 0,-1.505 -1.209,-2.728 -2.728,-2.728 -1.505,0 -2.727,1.223 -2.727,2.728" /></g></g></g></g></svg>